<svg xmlns="http://www.w3.org/2000/svg" xmlns:xlink="http://www.w3.org/1999/xlink" width="128px" height="128px" viewBox="0 0 128 128" version="1.1"><title>Go_Logo</title><defs><linearGradient x1="75.1927713%" y1="7.81824012%" x2="29.1557154%" y2="100%" id="linearGradient-1"><stop stop-color="#4DD664" offset="0%"/><stop stop-color="#25D0A9" offset="52.8188345%"/><stop stop-color="#00BBC5" offset="100%"/></linearGradient><rect id="path-2" x="0" y="0" width="128" height="128" rx="28.757054"/></defs><g id="Page-1" stroke="none" stroke-width="1" fill="none" fill-rule="evenodd"><g id="Go_Logo"><mask id="mask-3" fill="white"><use xlink:href="#path-2"/></mask><use id="Mask" fill="url(#linearGradient-1)" fill-rule="nonzero" xlink:href="#path-2"/><path d="M44.4634413,108.25 L44.0348105,108.25 C30.6243445,108.135204 19.75,97.1900988 19.75,83.7525915 C19.75,78.0996005 21.6738414,72.64407 25.0993878,68.392593 C27.6252508,70.2549495 30.4743995,71.8492155 33.5902088,73.143797 C30.8692715,75.7880973 29.2454158,79.7503705 29.2454158,83.7525915 C29.2454158,92.0252763 35.9754963,98.7554905 44.2478063,98.7554905 C52.5902903,98.7554905 59.3771023,92.0252763 59.3771023,83.7525915 C59.3771023,73.7273688 49.237591,69.8957233 43.189275,68.5037785 C28.730595,65.2216808 19.75,55.8811905 19.75,44.1248465 C19.75,37.5398418 22.2981303,31.3536465 26.9252135,26.706018 C31.5517198,22.059134 37.7035648,19.5 44.2478063,19.5 C50.244783,19.5 55.698596,21.7947799 60.0202105,26.136785 C64.0810275,30.216441 67.0145063,35.8922615 68.7390813,43.0063085 C70.1987578,49.0271838 74.1224168,59.127897 84.0020418,59.127897 C92.2743518,59.127897 99.0046603,52.397531 99.0046603,44.1248465 C99.0046603,35.782443 92.2743518,28.9954513 84.0020418,28.9954513 C79.813884,28.9954513 76.1387783,30.5049373 73.3724705,33.3609478 C73.3377763,33.3274113 73.3040855,33.2948448 73.2713983,33.2632483 C71.9739918,30.1706305 70.4088203,27.3747638 68.5836965,24.8892446 C72.857465,21.3972007 78.2356363,19.5 84.0020418,19.5 C90.5464353,19.5 96.698493,22.059134 101.324802,26.706018 C105.951566,31.3536465 108.5,37.5398418 108.5,44.1248465 C108.5,57.6334248 97.5102008,68.623318 84.0020418,68.623318 C77.9529663,68.623318 72.4853313,66.3528258 68.1901458,62.0576038 C64.1583403,58.0257635 61.2383798,52.3686715 59.5109188,45.2433843 C58.0396985,39.1754225 54.1010023,28.9954513 44.2478063,28.9954513 C35.9754963,28.9954513 29.2454158,35.782443 29.2454158,44.1248465 C29.2454158,51.313017 35.2464175,56.9655525 45.2981355,59.245462 L45.3121095,59.2486518 C52.4945988,60.9007888 58.2072348,63.8089268 62.291291,67.8933218 C66.596805,72.1987205 68.872594,77.6829588 68.872594,83.7525915 C68.872594,90.297041 66.3133755,96.4491515 61.6667135,101.0755 C57.0697523,105.652219 50.9680048,108.195 44.4634413,108.25 L44.4634413,108.25 Z" id="Go-Logo-Seb" fill="#FFFFFF" fill-rule="nonzero"/></g></g></svg>